<?xml version="1.0" encoding="UTF-8"?>
<svg version="1.1" xmlns="http://www.w3.org/2000/svg" width="512" height="512">
<path d="M0 0 C3.81828166 2.21343327 7.39942249 4.59117942 10.9375 7.2265625 C16.7131558 11.46655958 22.6420564 15.43529537 28.625 19.375 C35.09189276 23.65739764 41.53469651 27.94415245 47.8125 32.5 C53.97028468 36.96608559 60.28403327 41.17381562 66.625 45.375 C74.26963812 50.44004349 81.83520027 55.58204983 89.29345703 60.91699219 C96.46860156 66.02122674 103.82037616 70.85580546 111.16015625 75.71875 C117.53821274 79.95455851 123.79053273 84.30423561 129.984375 88.8046875 C136.2275461 93.2655902 142.68969878 97.42253058 149.11328125 101.6171875 C170.12377055 115.45808954 170.12377055 115.45808954 174.125 125.9375 C175.85514164 134.90277941 174.5833079 142.52777046 169.625 150.25 C165.97939525 155.00033347 160.72761724 158.43139305 154.8125 159.5 C152.75422246 159.66807889 150.68959693 159.7656334 148.625 159.8125 C147.55894531 159.84988281 146.49289062 159.88726562 145.39453125 159.92578125 C141.8125 159.5 141.8125 159.5 132.8125 155.5 C133.1425 170.35 133.4725 185.2 133.8125 200.5 C139.4225 198.39625 145.0325 196.2925 150.8125 194.125 C152.71829834 193.412229 154.62409668 192.69945801 156.58764648 191.96508789 C165.60458374 188.59258461 174.6135373 185.20111948 183.60464478 181.76025391 C187.96061628 180.0943557 192.31988015 178.43717315 196.67944336 176.78070068 C198.80407371 175.97075536 200.9271373 175.15668776 203.04858398 174.33843994 C206.04019389 173.18510271 209.03695402 172.04622509 212.03515625 170.91015625 C212.92211685 170.56399765 213.80907745 170.21783905 214.72291565 169.8611908 C221.83352746 167.19301837 227.80242045 166.54105509 234.94921875 169.44140625 C238.62672831 171.5307251 240.93139937 174.73779874 242.8125 178.5 C242.91727457 181.43203165 242.96029336 184.34067118 242.95967102 187.27323914 C242.96334771 188.19289186 242.9670244 189.11254458 242.9708125 190.06006557 C242.98187988 193.16073611 242.98569835 196.26137318 242.98950195 199.36206055 C242.99576432 201.57757169 243.00241092 203.79308178 243.00941467 206.0085907 C243.02684609 212.04180406 243.03738238 218.07500948 243.0456202 224.1082418 C243.05076607 227.87560207 243.056842 231.64295985 243.06313133 235.41031837 C243.08000462 245.84080897 243.09463915 256.2712984 243.10188007 266.70180035 C243.10378998 269.40919178 243.10571031 272.11658321 243.10766602 274.82397461 C243.10814976 275.49688637 243.1086335 276.16979813 243.1091319 276.86310116 C243.11743 287.76086126 243.14276229 298.65851151 243.17524669 309.55622365 C243.20832546 320.74456922 243.22599691 331.93287504 243.22952431 343.12127334 C243.23187743 349.40316934 243.24087196 355.68489182 243.26598549 361.96674156 C243.28923207 367.87728142 243.29351303 373.78753308 243.28322411 379.69810677 C243.2827278 381.86729261 243.28907607 384.03649246 243.30278015 386.20563507 C243.3204483 389.16805076 243.31341749 392.12942655 243.30024719 395.09184265 C243.31670106 396.37824293 243.31670106 396.37824293 243.33348733 397.69063109 C243.27183907 403.43777347 242.13498951 406.77741688 238.8125 411.5 C232.10515318 416.92296126 225.14647233 417.10488509 216.8125 416.5 C209.6961856 415.26511015 203.94833441 412.60780536 198.8125 407.5 C197.35791016 405.38549805 197.35791016 405.38549805 195.9765625 403.01171875 C195.46222656 402.12911377 194.94789063 401.24650879 194.41796875 400.3371582 C191.7057671 395.54419966 189.05687452 390.71922597 186.4375 385.875 C185.89222656 384.87082031 185.34695313 383.86664063 184.78515625 382.83203125 C183.45897901 380.38907318 182.13518175 377.94485134 180.8125 375.5 C174.23298474 377.34701543 167.966118 379.53941736 161.69921875 382.2578125 C160.88177689 382.6063327 160.06433502 382.95485291 159.22212219 383.31393433 C156.64589335 384.41259094 154.07264559 385.51798134 151.5 386.625 C148.08957116 388.09146219 144.67644781 389.55139688 141.26171875 391.0078125 C140.48769211 391.34322052 139.71366547 391.67862854 138.91618347 392.02420044 C135.23048586 393.59627334 131.811618 394.9286267 127.8125 395.5 C128.1425 396.4075 128.4725 397.315 128.8125 398.25 C131.39508291 407.53232699 130.3953025 417.05084392 125.8125 425.5 C120.3197409 433.33081745 113.71182853 438.79953755 104.32421875 441.11328125 C98.17069566 442.06071327 91.89612534 441.78076323 85.8125 440.5 C85.77125 441.469375 85.73 442.43875 85.6875 443.4375 C84.61799386 450.77550047 79.23927 456.79552656 73.60546875 461.28515625 C66.74931637 465.93061026 59.86489594 466.63648129 51.8125 466.5 C51.750625 467.325 51.68875 468.15 51.625 469 C49.87773751 476.52666921 45.17503106 482.23617438 38.8125 486.5 C34.09865748 489.15216193 30.54335003 489.54873571 25.1875 489.0625 C22.37968562 488.85737878 22.37968562 488.85737878 19.8125 489.5 C17.78121889 491.78010174 16.61361416 494.08559887 15.265625 496.8203125 C12.36918974 502.16158828 6.80222264 506.95973991 1.046875 509.05859375 C-7.24434048 510.69654366 -16.00796483 510.78089814 -23.44140625 506.46875 C-29.34630332 502.23536718 -34.91061249 497.56896748 -40.42333984 492.84106445 C-42.25903393 491.44562194 -44.09788981 490.46450166 -46.1875 489.5 C-46.70699219 489.98210937 -47.22648438 490.46421875 -47.76171875 490.9609375 C-48.80779297 491.90839844 -48.80779297 491.90839844 -49.875 492.875 C-50.55949219 493.50148438 -51.24398437 494.12796875 -51.94921875 494.7734375 C-58.3026366 499.67432876 -65.49837776 499.17568482 -73.1875 498.5 C-79.943467 496.84810177 -84.90824413 492.90537584 -89.1875 487.5 C-89.89272908 486.18665535 -90.5713119 484.85739988 -91.1875 483.5 C-92.00992188 483.53480469 -92.83234375 483.56960938 -93.6796875 483.60546875 C-104.56279168 483.86937774 -112.66237428 482.62264399 -121.203125 475.55078125 C-124.35288397 472.29561696 -126.33538481 468.60443617 -128.1875 464.5 C-128.91453125 464.65984375 -129.6415625 464.8196875 -130.390625 464.984375 C-139.52071506 466.66757596 -147.20430446 465.19092559 -155.3125 460.8125 C-160.03028561 457.0177594 -163.8344888 452.5295168 -167.1875 447.5 C-168.04794922 447.73976563 -168.04794922 447.73976563 -168.92578125 447.984375 C-176.87714088 449.7971202 -184.32357131 448.23431667 -191.35546875 444.28125 C-197.58127294 440.07620402 -200.83764265 434.54957206 -203.1875 427.5 C-203.28235782 425.3350098 -203.31738077 423.16706177 -203.3125 421 C-203.31507813 419.8553125 -203.31765625 418.710625 -203.3203125 417.53125 C-203.1875 414.5 -203.1875 414.5 -202.1875 411.5 C-203.425 411.12875 -203.425 411.12875 -204.6875 410.75 C-208.71123471 409.31295189 -212.40729024 407.47645485 -216.1875 405.5 C-216.39375 406.263125 -216.6 407.02625 -216.8125 407.8125 C-220.59068386 417.94490216 -225.61378466 426.05612265 -235.1875 431.5 C-242.59053428 434.05277044 -251.6472652 435.18604001 -259.125 432.3125 C-263.76228998 429.56798144 -267.09924503 426.50024936 -269.1875 421.5 C-269.44049966 419.45954961 -269.44049966 419.45954961 -269.44476891 417.24795818 C-269.4512178 416.40132915 -269.45766669 415.55470012 -269.464311 414.68241566 C-269.4612138 413.75723238 -269.4581166 412.8320491 -269.45492554 411.87882996 C-269.46172221 410.39878234 -269.46172221 410.39878234 -269.46865618 408.88883477 C-269.48134499 405.57322218 -269.47967691 402.2577729 -269.47802734 398.94213867 C-269.48400981 396.568698 -269.4908147 394.19525927 -269.49838257 391.82182312 C-269.51423961 386.03809608 -269.52049223 380.25441883 -269.52160732 374.47067114 C-269.52255776 369.76877987 -269.52666781 365.06690205 -269.53300858 360.36501503 C-269.55062222 347.03241856 -269.55984734 333.6998543 -269.55834763 320.36724611 C-269.55826772 319.64849386 -269.5581878 318.92974161 -269.55810547 318.18920898 C-269.55802371 317.46957839 -269.55794195 316.74994779 -269.55785771 316.00851021 C-269.55704494 304.34782421 -269.57617996 292.68726743 -269.6043822 281.0266188 C-269.6331158 269.05170774 -269.64692221 257.07685968 -269.64519465 245.10191327 C-269.64453087 238.37964091 -269.6500175 231.65750398 -269.67155075 224.93526268 C-269.69089425 218.61265958 -269.69108397 212.29034268 -269.67651749 205.96772957 C-269.67442344 203.64696714 -269.67916554 201.32618699 -269.6912384 199.00545502 C-269.70665212 195.83733926 -269.69740755 192.67021506 -269.68197632 189.50212097 C-269.69226344 188.58362985 -269.70255057 187.66513873 -269.71314943 186.71881455 C-269.64950376 180.80615944 -268.64110914 177.34157316 -265.1875 172.5 C-260.36071993 168.67879911 -256.533768 167.17056104 -250.40795898 167.21777344 C-245.41889079 167.85189799 -240.80588658 170.10173402 -236.1875 172 C-234.98851074 172.48194824 -233.78952148 172.96389648 -232.55419922 173.46044922 C-229.17133674 174.82206882 -225.7957288 176.2008769 -222.42175293 177.58435059 C-220.08840925 178.54060972 -217.75381556 179.49376372 -215.41894531 180.44628906 C-207.23453571 183.78634785 -199.05578555 187.13986652 -190.8828125 190.5078125 C-180.32459838 194.85531243 -169.75563497 199.17667206 -159.1875 203.5 C-159.1875 187.66 -159.1875 171.82 -159.1875 155.5 C-163.1475 157.48 -163.1475 157.48 -167.1875 159.5 C-174.45546575 161.3320079 -181.42894971 160.74455321 -188.1875 157.5 C-194.66401141 153.39820944 -198.95803399 147.84292015 -201.1875 140.5 C-202.3211526 132.93612115 -201.52601955 126.72084051 -198.0625 119.9140625 C-192.67087064 112.9723397 -185.10729036 108.20165756 -177.875 103.375 C-175.91392438 102.05228808 -173.95298931 100.72936777 -171.9921875 99.40625 C-170.52797363 98.42205078 -170.52797363 98.42205078 -169.03417969 97.41796875 C-164.84077593 94.592636 -160.66991 91.73484177 -156.5 88.875 C-154.94409385 87.80977396 -153.38810449 86.74466944 -151.83203125 85.6796875 C-151.06713379 85.15600586 -150.30223633 84.63232422 -149.51416016 84.09277344 C-145.57247795 81.39439623 -141.6299411 78.69726826 -137.6875 76 C-136.10416268 74.9166725 -134.52082934 73.83333917 -132.9375 72.75 C-110.77083333 57.58333333 -88.60416667 42.41666667 -66.4375 27.25 C-65.6530249 26.71318604 -64.8685498 26.17637207 -64.06030273 25.62329102 C-62.4845493 24.54528046 -60.90854209 23.46764077 -59.33227539 22.39038086 C-55.2557583 19.60367124 -51.18449256 16.80971624 -47.12109375 14.00390625 C-15.7675303 -7.61546948 -15.7675303 -7.61546948 0 0 Z " fill="#010101" transform="translate(269.1875,2.5)"/>
<path d="M0 0 C2.63869982 1.37224234 5.05876862 2.88277602 7.51831055 4.55712891 C8.57147461 5.27126953 9.62463867 5.98541016 10.7097168 6.72119141 C11.93778636 7.56203794 13.16563557 8.40320636 14.39331055 9.24462891 C15.83980926 10.23177788 17.28643058 11.21874721 18.7331543 12.20556641 C22.79404873 14.97839189 26.85029301 17.75795365 30.90551758 20.5390625 C34.89943776 23.2771907 38.89649593 26.01072828 42.89331055 28.74462891 C44.47274959 29.8253406 46.05217665 30.9060698 47.6315918 31.98681641 C50.83698568 34.18001535 54.04275365 36.37266609 57.2487793 38.56494141 C65.286724 44.06185843 73.31974269 49.56572203 81.34204102 55.08544922 C86.4581224 58.60442015 91.58076234 62.11373217 96.70581055 65.61962891 C97.48811035 66.15491211 98.27041016 66.69019531 99.07641602 67.24169922 C103.31151973 70.13890106 107.54862094 73.03314188 111.7878418 75.92431641 C113.1011145 76.82077881 113.1011145 76.82077881 114.44091797 77.73535156 C116.13187661 78.88956659 117.82342609 80.0429166 119.515625 81.1953125 C120.27190186 81.71174316 121.02817871 82.22817383 121.80737305 82.76025391 C122.8121167 83.44522949 122.8121167 83.44522949 123.8371582 84.14404297 C125.39331055 85.24462891 125.39331055 85.24462891 126.39331055 86.24462891 C126.51394135 88.390233 126.56358939 90.53984698 126.58618164 92.6887207 C126.59435913 93.36197891 126.60253662 94.03523712 126.61096191 94.72889709 C126.63586486 96.96720481 126.6523479 99.20544872 126.66674805 101.44384766 C126.67207172 102.20772104 126.6773954 102.97159443 126.6828804 103.75861549 C126.70963855 107.80496849 126.72900123 111.85129042 126.7434082 115.89770508 C126.76002542 120.0731855 126.80476971 124.24787186 126.85577965 128.42305279 C126.88948782 131.63589859 126.90098971 134.84855725 126.90663528 138.06156349 C126.91334247 139.60013683 126.92855094 141.13869808 126.95252609 142.67709923 C126.98424851 144.83657063 126.98420503 146.99391997 126.97680664 149.15356445 C126.98489349 150.38076706 126.99298035 151.60796967 127.00131226 152.87236023 C126.19286584 157.35639128 124.5034149 158.9672739 121.39331055 162.24462891 C118.19585412 167.19871263 118.27531253 173.27333012 118.88745117 178.99316406 C120.40759913 185.75899634 124.75464178 191.84691925 128.4753418 197.60327148 C129.39331055 199.24462891 129.39331055 199.24462891 129.39331055 201.24462891 C125.72019656 202.68822759 122.03984301 204.11139697 118.35205078 205.51708984 C116.49134596 206.23099487 114.6365836 206.96032691 112.78198242 207.68994141 C103.33468966 211.27428012 96.25742337 212.87834574 86.63500977 209.30615234 C82.51893292 207.35704517 79.03661622 204.6564711 75.45581055 201.86962891 C73.79773493 200.6120913 72.13885961 199.35560753 70.47924805 198.10009766 C69.64103516 197.46120605 68.80282227 196.82231445 67.93920898 196.1640625 C63.1451443 192.54966505 58.24524278 189.08124239 53.35644531 185.59667969 C52.31315063 184.84813721 52.31315063 184.84813721 51.2487793 184.08447266 C50.64702881 183.65513428 50.04527832 183.2257959 49.42529297 182.78344727 C48.75473877 182.27563721 48.08418457 181.76782715 47.39331055 181.24462891 C46.33821289 180.59236328 45.28311523 179.94009766 44.19604492 179.26806641 C42.13648522 177.5222328 41.46762738 176.56637002 40.85383606 173.90907288 C40.65103851 170.93400405 40.6414981 168.01133962 40.6940918 165.02978516 C40.68750046 163.94128769 40.68090912 162.85279022 40.67411804 161.73130798 C40.65663661 158.25595872 40.67863186 154.78239341 40.70581055 151.30712891 C40.7171194 147.83579204 40.71974635 144.36498947 40.70536804 140.8936615 C40.69799687 138.73558527 40.70614262 136.57738556 40.73176575 134.41944885 C40.72904192 128.15449376 40.30876234 123.44099663 35.89331055 118.60009766 C31.27162852 115.0014442 28.32165198 114.12129937 22.54833984 114.06762695 C21.34666672 114.05479172 20.14499359 114.04195648 18.90690613 114.0287323 C17.60691177 114.02134537 16.30691742 114.01395844 14.9675293 114.00634766 C13.97341002 114.00023437 13.97341002 114.00023437 12.95920753 113.99399757 C9.45099832 113.97315799 5.94282798 113.95884742 2.43457031 113.94946289 C-1.18026478 113.93840494 -4.79448321 113.90400723 -8.40910053 113.86429119 C-11.19645801 113.83808816 -13.98366935 113.82976784 -16.77113914 113.82618141 C-18.74866388 113.81897092 -20.72608856 113.79254851 -22.70344543 113.76579285 C-31.48027458 113.72128513 -31.48027458 113.72128513 -38.60668945 118.24462891 C-42.74633804 122.83180707 -43.73163281 125.94099803 -43.71679688 132.04199219 C-43.71766548 133.82997726 -43.71766548 133.82997726 -43.71855164 135.65408325 C-43.7164418 136.94466644 -43.71433197 138.23524963 -43.7121582 139.56494141 C-43.72303597 142.29413263 -43.74053696 145.02327931 -43.75708008 147.75244141 C-43.78134643 152.05792035 -43.79718042 156.36291944 -43.78173828 160.66845703 C-43.77000602 164.15424452 -43.78766168 167.63884441 -43.82418251 171.12444687 C-43.83687315 173.08343838 -43.81883608 175.04255239 -43.8000946 177.00149536 C-43.91054371 185.18657409 -45.31402126 189.99747636 -50.60668945 196.24462891 C-51.12391068 196.97033585 -51.6411319 197.69604279 -52.17402649 198.44374084 C-53.60668945 200.24462891 -53.60668945 200.24462891 -55.66870117 200.92651367 C-56.45003418 201.01215576 -57.23136719 201.09779785 -58.03637695 201.18603516 C-59.34312378 201.34688599 -59.34312378 201.34688599 -60.67626953 201.51098633 C-61.60205811 201.60871338 -62.52784668 201.70644043 -63.48168945 201.80712891 C-65.400233 202.03940873 -67.31821481 202.276377 -69.2355957 202.51806641 C-70.16388184 202.63504883 -71.09216797 202.75203125 -72.04858398 202.87255859 C-75.24028448 203.33678379 -78.30697127 204.0922617 -81.41918945 204.93212891 C-97.52918036 208.80930819 -113.53355703 205.80929207 -127.60668945 197.24462891 C-126.60082865 194.07229868 -125.59740482 191.22784514 -123.98168945 188.30712891 C-121.21002223 181.9065778 -121.12654944 173.00528094 -123.66137695 166.56494141 C-125.39347039 163.76694431 -127.28372496 161.5675934 -129.60668945 159.24462891 C-129.92121887 156.28659058 -129.92121887 156.28659058 -130.00830078 152.44335938 C-130.02626205 151.74390701 -130.04422333 151.04445465 -130.06272888 150.32380676 C-130.11756001 148.00319895 -130.15545053 145.68282972 -130.1887207 143.36181641 C-130.20061621 142.56825871 -130.21251171 141.774701 -130.22476768 140.9570961 C-130.28411634 136.75286552 -130.32792495 132.54874584 -130.36181641 128.34423828 C-130.39292002 124.87062246 -130.45547524 121.39980274 -130.54638672 117.92724609 C-130.65621197 113.72945442 -130.71144671 109.53421931 -130.72821617 105.3350563 C-130.7434438 103.7392905 -130.77738996 102.14358394 -130.8308506 100.5486412 C-131.22466835 88.10679191 -131.22466835 88.10679191 -127.28520203 83.57278442 C-124.48336347 81.50939783 -121.69127078 79.84693078 -118.60668945 78.24462891 C-117.54087646 77.51260254 -116.47506348 76.78057617 -115.37695312 76.02636719 C-114.08881714 75.17921143 -114.08881714 75.17921143 -112.7746582 74.31494141 C-111.79851562 73.66976562 -110.82237305 73.02458984 -109.81665039 72.35986328 C-108.81923828 71.70308594 -107.82182617 71.04630859 -106.79418945 70.36962891 C-99.50619439 65.54376412 -92.27697136 60.6706235 -85.19799805 55.54321289 C-80.86725025 52.41014818 -76.44527151 49.44003397 -71.9855957 46.49462891 C-61.82765359 39.76200326 -51.83279807 32.77836354 -41.79418945 25.86962891 C-35.26295659 21.37516131 -28.71842235 16.90032268 -22.16918945 12.43212891 C-21.25741943 11.80967285 -20.34564941 11.1872168 -19.40625 10.54589844 C-17.65284989 9.35046393 -15.89570825 8.16049526 -14.13452148 6.9765625 C-12.43988262 5.81548774 -10.76858904 4.61963557 -9.12182617 3.39160156 C-8.34210449 2.8236084 -7.56238281 2.25561523 -6.7590332 1.67041016 C-5.73604126 0.8975769 -5.73604126 0.8975769 -4.69238281 0.10913086 C-2.60668945 -0.75537109 -2.60668945 -0.75537109 0 0 Z " fill="#FD9700" transform="translate(257.606689453125,57.75537109375)"/>
<path d="M0 0 C3.12066653 0.6060114 6.07415085 1.2857265 9.07421875 2.33984375 C9.81873291 2.59749512 10.56324707 2.85514648 11.33032227 3.12060547 C12.10819092 3.39018066 12.88605957 3.65975586 13.6875 3.9375 C31.09590441 9.79054968 46.10317668 10.28955928 64.04418945 6.33544922 C64.89198975 6.15127441 65.73979004 5.96709961 66.61328125 5.77734375 C67.73923706 5.51812134 67.73923706 5.51812134 68.88793945 5.25366211 C71.19794534 4.97622642 72.79744626 5.29988142 75 6 C74.62190186 6.80630859 74.24380371 7.61261719 73.85424805 8.44335938 C72.43726318 11.46892509 71.02303886 14.49575044 69.6105957 17.5234375 C69.00165146 18.82732869 68.39164816 20.13072586 67.78051758 21.43359375 C58.98149397 39.30691948 58.98149397 39.30691948 60.5625 58.6875 C63.91703128 66.90962037 69.0191376 71.95242887 76.7890625 76.08984375 C85.15694657 79.53457341 93.22725137 78.4700959 101.4296875 75.19140625 C107.57975378 72.34069164 111.65558724 68.52859088 115.984375 63.37109375 C118.4154943 60.51123054 120.9529124 57.75597118 123.5 55 C127.13308998 51.0550647 130.717053 47.07540603 134.23046875 43.0234375 C137.77250742 38.97315928 141.39252094 34.99194962 145 31 C149.03645582 33.86221413 152.87432219 36.74080072 156.3125 40.3125 C159.06742914 43.16050107 161.96776039 45.65011321 165.0625 48.125 C170.89785419 52.81900392 176.33116508 57.88463902 181.79296875 63.00390625 C186.4639332 67.38116714 191.29747541 71.5514289 196.171875 75.69921875 C203.01518479 81.53018213 209.73983217 87.45408334 216.34375 93.5546875 C220.86298847 97.71504527 225.50178609 101.72685535 230.1796875 105.70703125 C259.5675173 130.73672145 259.5675173 130.73672145 260.30078125 136.26953125 C260.32531776 141.59395422 260.12415375 145.47536353 257 150 C252.43112739 154.22620716 248.56385911 155.51459834 242.4453125 155.38671875 C234.58220327 154.14319189 228.50678755 146.8490124 222.93847656 141.59667969 C219.56402902 138.41438546 216.12451746 135.40067068 212.5 132.5 C207.74826821 128.68756403 203.30420014 124.62736999 198.86230469 120.46557617 C194.41085859 116.31921569 189.79371854 112.45160953 185.046875 108.64453125 C183 107 183 107 182 106 C177.95006393 105.50787629 174.24421954 105.08513269 170.875 107.5625 C169.58878037 111.14554039 169.9756397 113.35071641 171 117 C173.20352271 119.44964657 173.20352271 119.44964657 176 122 C176.50950195 122.485896 177.01900391 122.97179199 177.54394531 123.47241211 C183.34096999 128.99426157 189.18026615 134.43734162 195.4375 139.4375 C200.14906608 143.22081724 204.62604675 147.21378079 209.0625 151.3125 C210.04657837 152.21150024 210.04657837 152.21150024 211.05053711 153.12866211 C211.66421143 153.70108643 212.27788574 154.27351074 212.91015625 154.86328125 C213.45808838 155.37157471 214.00602051 155.87986816 214.57055664 156.40356445 C217.15384211 159.28863767 217.95527544 161.51697472 218.3125 165.375 C217.85787725 170.64862387 216.3859881 173.71796101 212.5 177.3125 C207.92368951 180.40150958 203.36236489 180.96554084 198 180 C196.04219055 178.67988586 196.04219055 178.67988586 194.1652832 176.9309082 C193.47536285 176.29343658 192.7854425 175.65596497 192.07461548 174.99917603 C188.86076291 171.90218911 185.67820018 168.78216943 182.54296875 165.60546875 C181.87332596 164.93203934 181.20368317 164.25860992 180.51374817 163.56477356 C178.40251956 161.44146009 176.29460733 159.31490283 174.1875 157.1875 C171.39220161 154.36561288 168.59360572 151.54705639 165.79296875 148.73046875 C165.15546188 148.08466354 164.51795502 147.43885834 163.86112976 146.77348328 C163.26653458 146.17558487 162.67193939 145.57768646 162.05932617 144.96166992 C161.53940598 144.43651291 161.01948578 143.9113559 160.48381042 143.37028503 C157.81344731 140.9042297 156.20536663 140.02240363 152.5625 139.625 C149.0227274 139.72831871 149.0227274 139.72831871 146.5625 141.5625 C144.22947903 145.20201271 144.10204777 146.71745859 145 151 C151.69988623 159.95515661 160.56517092 167.65023035 168.5 175.5 C171.03411629 178.00754792 173.56489949 180.51839302 176.09375 183.03125 C176.96235657 183.88740906 176.96235657 183.88740906 177.84851074 184.76086426 C182.86015051 189.74135459 182.86015051 189.74135459 183.3125 193.8125 C182.92835642 197.7307645 181.70743683 199.21293267 179 202 C175.68572884 203.65713558 172.55679693 203.72911167 169 203 C165.28535601 200.7774963 162.45041958 197.53172956 159.49316406 194.40869141 C158.38288817 193.23666013 157.2674104 192.06953831 156.1472168 190.90698242 C155.02612 189.73849955 153.92007147 188.55534886 152.83129883 187.35668945 C149.95546764 184.34266955 148.43268932 183.11283591 144.28515625 182.03125 C140.94776828 181.76662859 140.94776828 181.76662859 138 183.375 C135.96546889 186.04532209 135.52520104 186.78429511 135.4375 190 C136.44904862 196.39937602 141.76225379 200.33069423 146.3125 204.49609375 C149.67687992 207.63063958 149.91582024 208.15820239 150.375 212.75 C150.30593059 216.19719123 149.86020508 217.24802324 148.0625 220.4375 C144.71241503 223.24063233 142.82581971 224.29130146 138.5078125 224.4765625 C133.0489212 223.43920309 129.13319406 219.49648792 125 216 C123.81691891 215.04981934 122.63195191 214.10198308 121.4453125 213.15625 C120.2535606 212.18952776 119.06343031 211.2208027 117.875 210.25 C117.30620117 209.79077148 116.73740234 209.33154297 116.15136719 208.85839844 C114.05840115 207.0982588 112.27009578 205.49400419 110.94921875 203.078125 C111.02918402 199.80570006 112.49234187 197.40997827 113.9375 194.5 C117.41420431 186.92635287 118.7463134 180.26841385 116.07421875 172.20703125 C113.03971336 165.51530438 109.41289616 162.2752641 103.375 158.25 C98.36114565 156.39301691 93.30975328 156.24916318 88 156 C87.85304687 155.443125 87.70609375 154.88625 87.5546875 154.3125 C85.21611024 146.35596129 81.8320658 140.34649243 74.5 136.125 C68.37222804 132.95984458 68.37222804 132.95984458 61.65625 132.15625 C58.66086456 132.26451694 56.77040244 132.19299627 54 131 C52.16735613 128.20064582 50.86064445 125.50180346 49.54321289 122.44506836 C46.4693874 115.39122945 42.5108313 111.77013171 35.73828125 108.35546875 C28.64405444 105.7831629 20.06822722 105.62525488 12.87890625 108.0546875 C10.4851935 109.25687904 8.254756 110.55800488 6 112 C4.67406246 112.68125756 3.34287117 113.35276029 2 114 C1.48050781 113.59007812 0.96101563 113.18015625 0.42578125 112.7578125 C-0.27160156 112.21898437 -0.96898437 111.68015625 -1.6875 111.125 C-2.37199219 110.59132813 -3.05648437 110.05765625 -3.76171875 109.5078125 C-10.58882703 104.90874828 -18.08322802 105.20584106 -26 106 C-35.58226258 109.02740031 -40.62068776 116.80752191 -45.1171875 125.27734375 C-45.40851563 125.84582031 -45.69984375 126.41429687 -46 127 C-47.3983022 126.57045619 -48.79353907 126.13092966 -50.1875 125.6875 C-50.96480469 125.44386719 -51.74210937 125.20023437 -52.54296875 124.94921875 C-55.24329501 123.90600845 -57.53723253 122.51209976 -60 121 C-53.21885938 106.49306526 -46.14021819 92.14742507 -38.96484375 77.83203125 C-37.83409784 75.57240986 -36.7035317 73.31269851 -35.57313538 71.05290222 C-32.63065822 65.17172398 -29.68577875 59.29175202 -26.74035645 53.41204834 C-24.019577 47.98029618 -21.3011048 42.54738927 -18.58244884 37.11457407 C-12.39086054 24.74176638 -6.19641517 12.37039098 0 0 Z " fill="#FDDFB1" transform="translate(121,271)"/>
<path d="M0 0 C2.28171597 1.61603687 4.49997812 3.29242128 6.70922852 5.00610352 C8.37520554 6.26613044 10.04188917 7.52522359 11.70922852 8.78344727 C12.54325195 9.41750488 13.37727539 10.0515625 14.23657227 10.70483398 C18.01684186 13.55421966 21.86087124 16.31225002 25.70922852 19.06860352 C30.40525166 22.43326654 35.07094722 25.82750459 39.67407227 29.31860352 C53.42951045 39.71813931 63.92699086 46.60990572 81.70922852 45.56860352 C90.72038156 44.30299213 99.18239709 40.60210692 107.58813477 37.26196289 C108.90297852 36.74279297 108.90297852 36.74279297 110.24438477 36.21313477 C111.03208252 35.89707275 111.81978027 35.58101074 112.63134766 35.25537109 C114.70922852 34.56860352 114.70922852 34.56860352 117.70922852 34.56860352 C118.00990234 35.15013184 118.31057617 35.73166016 118.62036133 36.33081055 C124.15726346 47.02586224 129.73193351 57.69540728 135.52172852 68.25610352 C139.89591096 76.23637628 144.24073371 84.23173396 148.54501343 92.24990845 C149.48544201 94.00103613 150.42798164 95.75102959 151.37060547 97.50097656 C155.63417585 105.45249185 159.71311281 113.48022725 163.70922852 121.56860352 C158.28818262 123.88194283 152.86618426 126.19303125 147.44335938 128.50219727 C145.60554226 129.28513463 143.76796956 130.06864599 141.93066406 130.8527832 C136.67595335 133.09517544 131.41666584 135.32611612 126.14984131 137.53991699 C124.56280281 138.20883306 122.97729982 138.88140807 121.39361572 139.55822754 C119.31695698 140.44485715 117.23490676 141.31724287 115.15063477 142.18579102 C113.99378174 142.67418457 112.83692871 143.16257812 111.64501953 143.66577148 C108.66079055 144.58349945 107.50844623 144.84062794 104.70922852 143.56860352 C103.14453125 142.40454102 103.14453125 142.40454102 101.64282227 140.94360352 C101.08079102 140.40670898 100.51875977 139.86981445 99.93969727 139.31665039 C99.34801758 138.73979492 98.75633789 138.16293945 98.14672852 137.56860352 C93.94974416 133.56753648 89.74929366 129.68446521 85.20922852 126.06860352 C79.51291147 121.50818425 74.23603786 116.55125688 68.91625977 111.56469727 C64.24529531 107.18743638 59.41175311 103.01717462 54.53735352 98.86938477 C47.69404372 93.03842138 40.96939634 87.11452017 34.36547852 81.01391602 C29.84624005 76.85355825 25.20744243 72.84174816 20.52954102 68.86157227 C13.69507119 63.04010923 6.98090631 57.12367693 0.38500977 51.03344727 C-3.11681727 47.80767667 -6.65683791 44.64459982 -10.29077148 41.56860352 C-11.04229492 40.91504883 -11.79381836 40.26149414 -12.56811523 39.58813477 C-17.09011112 35.77483402 -17.09011112 35.77483402 -22.60327148 33.94360352 C-26.51852948 34.82182023 -26.51852948 34.82182023 -29.29077148 37.56860352 C-29.86533242 40.66419714 -29.87175189 43.47376556 -29.29077148 46.56860352 C-27.47812501 49.13851349 -27.47812501 49.13851349 -25.29077148 50.56860352 C-26.95153982 54.71549171 -29.95056598 57.63579677 -32.97827148 60.81860352 C-34.0753994 61.98845126 -35.17175825 63.15902076 -36.26733398 64.33032227 C-36.79359375 64.89154785 -37.31985352 65.45277344 -37.86206055 66.03100586 C-39.5656017 67.86437943 -41.21805411 69.73664436 -42.85327148 71.63110352 C-45.8385114 75.07957032 -48.89844297 78.45477961 -51.97827148 81.81860352 C-52.44241455 82.32657471 -52.90655762 82.8345459 -53.38476562 83.35791016 C-62.47024997 93.25521224 -62.47024997 93.25521224 -68.66577148 93.94360352 C-73.73626816 93.41906938 -76.44652541 91.28566021 -80.10327148 87.88110352 C-82.21104316 83.77649551 -82.85398214 79.00556516 -81.80935669 74.48556519 C-81.02368401 72.392696 -80.13335187 70.39424538 -79.16967773 68.37719727 C-78.66331032 67.2546328 -78.66331032 67.2546328 -78.14671326 66.10939026 C-77.06828328 63.73219627 -75.96126214 61.36963924 -74.85327148 59.00610352 C-74.14373078 57.44900631 -73.43603414 55.89106743 -72.73022461 54.33227539 C-69.27698441 46.7509902 -65.68271629 39.24120467 -61.97045898 31.78344727 C-61.49105614 30.81936195 -61.49105614 30.81936195 -61.00196838 29.83580017 C-54.21524817 16.34585111 -44.76656334 1.48947662 -30.10327148 -4.30639648 C-19.43224499 -7.37891618 -9.35356092 -5.84460489 0 0 Z " fill="#FDDEB1" transform="translate(278.290771484375,239.431396484375)"/>
<path d="M0 0 C5.66258847 1.88752949 11.17030691 3.78796921 16.671875 6.046875 C17.38022491 6.33496536 18.08857483 6.62305573 18.81838989 6.9198761 C21.12998851 7.86066775 23.43997686 8.80534737 25.75 9.75 C27.37894613 10.41363179 29.00801743 11.07695639 30.63720703 11.73999023 C34.03434566 13.12282096 37.43093879 14.5069792 40.82714844 15.89208984 C48.38243198 18.97229891 55.94388835 22.0372783 63.50549316 25.10192871 C65.8043477 26.03385836 68.1028948 26.96654235 70.40136719 27.89941406 C71.12509521 28.19284698 71.84882324 28.48627991 72.59448242 28.78860474 C74.00985284 29.36297048 75.42474183 29.93852422 76.83911133 30.51535034 C80.29890206 31.92294717 83.76636407 33.29974696 87.25878906 34.62451172 C87.94232452 34.88727402 88.62585999 35.15003632 89.33010864 35.42076111 C91.19386593 36.13512757 93.06188008 36.83836003 94.93017578 37.54077148 C98.17106961 39.08131725 99.97796731 40.03058791 102 43 C103.0187623 50.77963304 99.95962921 56.17317368 96.46728516 62.98950195 C95.87862671 64.16959335 95.28996826 65.34968475 94.68347168 66.5655365 C93.07321508 69.79259832 91.44338366 73.0094019 89.80971193 76.2246592 C88.09207935 79.61334756 86.39247435 83.01105643 84.69076538 86.40776062 C81.8242916 92.12324687 78.94634814 97.83282667 76.06005859 103.53833008 C72.02303569 111.51857451 68.00593353 119.50871243 63.99328923 127.50123656 C41.04537365 173.1986136 41.04537365 173.1986136 33.2149601 187.89655018 C30.52239571 192.95648551 27.96051517 198.07242499 25.4453125 203.22265625 C25.06491947 203.9994681 24.68452644 204.77627995 24.29260635 205.57663155 C22.85974122 208.50314497 21.42926664 211.43059766 20.015625 214.36645508 C18.94057736 216.59486038 17.8506244 218.81542063 16.7578125 221.03515625 C16.43797394 221.70893814 16.11813538 222.38272003 15.78860474 223.07691956 C13.8394043 226.99863225 13.09606287 227.95196856 9 230 C6.03 230 3.06 230 0 230 C0 154.1 0 78.2 0 0 Z " fill="#3E50B4" transform="translate(17,188)"/>
<path d="M0 0 C0 70.62 0 141.24 0 214 C-10 214 -10 214 -12.88842773 211.91967773 C-15.12981718 208.82050136 -17.05244437 205.68538444 -18.78515625 202.28515625 C-19.12273956 201.64183853 -19.46032288 200.99852081 -19.80813599 200.33570862 C-20.90123174 198.24885958 -21.98167601 196.15572669 -23.0625 194.0625 C-24.20664682 191.87269097 -25.35411995 189.68464472 -26.50160217 187.49658203 C-27.26534555 186.03947522 -28.02799278 184.58179332 -28.78953552 183.12353516 C-31.8559016 177.25390636 -34.99801565 171.42869016 -38.1875 165.625 C-44.25616575 154.55287441 -50.23931684 143.43549253 -56.21777344 132.31445312 C-59.142669 126.87494872 -62.07151053 121.43757011 -65 116 C-66.16668608 113.83334379 -67.33335274 111.66667712 -68.5 109.5 C-69.0775 108.4275 -69.655 107.355 -70.25 106.25 C-75.5 96.5 -75.5 96.5 -77.25292969 93.24438477 C-78.40963628 91.09633083 -79.56653463 88.94838013 -80.72363281 86.80053711 C-83.46359545 81.71396897 -86.20155003 76.6263485 -88.93273926 71.5350647 C-89.90911899 69.71518229 -90.88610619 67.89562734 -91.86328125 66.07617188 C-93.09627136 63.77995117 -94.32809266 61.48310236 -95.55859375 59.18554688 C-96.11160156 58.15623047 -96.66460937 57.12691406 -97.234375 56.06640625 C-97.72131836 55.15834229 -98.20826172 54.25027832 -98.70996094 53.31469727 C-100.04756034 50.8425681 -100.04756034 50.8425681 -102 48 C-102.66541607 41.90035271 -102.66541607 41.90035271 -100.51953125 38.99682617 C-97.0613991 36.2561224 -93.43772017 34.97638335 -89.3125 33.48828125 C-88.43796677 33.1624556 -87.56343353 32.83662994 -86.66239929 32.50093079 C-83.77842775 31.42841935 -80.88923402 30.37074304 -78 29.3125 C-74.96365229 28.18644917 -71.92887537 27.05623728 -68.89421082 25.92565918 C-66.79570026 25.14396582 -64.69674508 24.36346512 -62.59736633 23.58410645 C-51.25400203 19.36786319 -39.96900034 15.00352535 -28.6875 10.625 C-25.91911845 9.55157805 -23.15063647 8.47841616 -20.3820343 7.40556335 C-18.74295306 6.7701968 -17.10408812 6.1342718 -15.46549988 5.49763489 C-1.29858098 0 -1.29858098 0 0 0 Z " fill="#3E50B4" transform="translate(495,187)"/>
<path d="M0 0 C2.6484375 1.36328125 2.6484375 1.36328125 5.375 3.3125 C6.9528125 4.41851562 6.9528125 4.41851562 8.5625 5.546875 C9.12195313 5.94712891 9.68140625 6.34738281 10.2578125 6.75976562 C12.62979335 8.44833944 15.03243908 10.09042265 17.43530273 11.73461914 C19.45074257 13.11435196 21.46189732 14.50017443 23.47265625 15.88671875 C28.57445065 19.39967185 33.69324015 22.88756818 38.8125 26.375 C48.10718443 32.70780928 57.392959 39.05347941 66.67333984 45.40722656 C70.61502205 48.10560377 74.5575589 50.80273174 78.5 53.5 C80.08333732 54.5833275 81.66667066 55.66666083 83.25 56.75 C84.03375 57.28625 84.8175 57.8225 85.625 58.375 C88 60 90.375 61.625 92.75 63.25 C93.92598755 64.0546167 93.92598755 64.0546167 95.12573242 64.87548828 C96.70664032 65.95717066 98.28753229 67.03887634 99.8684082 68.12060547 C103.8637193 70.85439101 107.85931967 73.58775202 111.85546875 76.3203125 C119.81225241 81.76176725 127.76664605 87.20646882 135.70263672 92.67822266 C139.7164447 95.44204195 143.74449129 98.18385575 147.78125 100.9140625 C148.77922607 101.59033691 149.77720215 102.26661133 150.80541992 102.96337891 C152.77767846 104.29914092 154.75174127 105.63224364 156.7277832 106.96240234 C157.62843506 107.57293457 158.52908691 108.1834668 159.45703125 108.8125 C160.6632312 109.62654297 160.6632312 109.62654297 161.89379883 110.45703125 C166.78845973 114.04278028 166.78845973 114.04278028 167.46875 117.12109375 C167.55256223 123.33367496 167.55256223 123.33367496 164.875 126.5625 C161.51579732 128.24210134 159.7188283 128.3338599 156 128 C153.5625 126.77734375 153.5625 126.77734375 151 124.9375 C149.96359375 124.21046875 148.9271875 123.4834375 147.859375 122.734375 C146.96508789 122.09725586 146.96508789 122.09725586 146.05273438 121.44726562 C142.7687356 119.13190588 139.43745108 116.88666324 136.11254883 114.63061523 C128.02066286 109.13779473 119.95634691 103.60453374 111.90063477 98.05883789 C104.41920768 92.90888967 96.92071328 87.78391878 89.42333984 82.65722656 C85.44837668 79.93890599 81.47422452 77.21940031 77.5 74.5 C75.91667066 73.41666083 74.33333732 72.3333275 72.75 71.25 C44.25 51.75 44.25 51.75 41.87304688 50.12353516 C40.29638376 49.04485103 38.7195619 47.96639889 37.14257812 46.88818359 C33.08082957 44.11063966 29.02227259 41.32860026 24.96875 38.5390625 C21.0045487 35.8118374 17.03028915 33.09990547 13.04882812 30.39794922 C11.22629218 29.15440289 9.41670848 27.89436909 7.609375 26.62890625 C6.66578125 25.98824219 5.7221875 25.34757812 4.75 24.6875 C3.98171875 24.15511719 3.2134375 23.62273438 2.421875 23.07421875 C-1.01726917 21.5487919 -3.26371309 21.51058223 -7 22 C-9.72433267 23.35388111 -12.03748204 25.14182694 -14.4375 27 C-15.92969945 28.10507144 -17.42465816 29.2064235 -18.921875 30.3046875 C-19.72947266 30.89991211 -20.53707031 31.49513672 -21.36914062 32.10839844 C-26.21189271 35.59036236 -31.20838431 38.84256093 -36.1875 42.125 C-43.63061658 47.05368244 -50.9620903 52.0705361 -58.1875 57.3125 C-64.40401182 61.75286558 -70.82788314 65.89818174 -77.1953125 70.1171875 C-82.53055976 73.66064746 -87.81591795 77.2389993 -93 81 C-100.25122763 86.26069456 -107.72829361 91.16960286 -115.1953125 96.1171875 C-120.53055976 99.66064746 -125.81591795 103.2389993 -131 107 C-137.43589698 111.63575748 -143.94648068 116.15704642 -150.5 120.625 C-151.54027344 121.34945312 -152.58054687 122.07390625 -153.65234375 122.8203125 C-154.64363281 123.490625 -155.63492188 124.1609375 -156.65625 124.8515625 C-157.54119141 125.45822754 -158.42613281 126.06489258 -159.33789062 126.68994141 C-162.49163897 128.24194192 -164.52526069 128.36001165 -168 128 C-171.74093467 125.92170296 -172.79149259 124.67458281 -174.0625 120.5625 C-173.98348351 116.05855986 -173.08077022 115.23361463 -170 112 C-167.30658236 109.89056172 -164.47873668 108.00958715 -161.625 106.125 C-159.90874481 104.97151686 -158.19260353 103.81786423 -156.4765625 102.6640625 C-155.57969727 102.0649707 -154.68283203 101.46587891 -153.75878906 100.84863281 C-149.15240396 97.76194715 -144.5781794 94.62829473 -140 91.5 C-138.13944359 90.2315938 -136.27876708 88.96336376 -134.41796875 87.6953125 C-127.0479607 82.6702475 -119.68700276 77.63197998 -112.32666016 72.59277344 C-108.38497795 69.89439623 -104.4424411 67.19726826 -100.5 64.5 C-98.91666268 63.4166725 -97.33332934 62.33333917 -95.75 61.25 C-79.91666667 50.41666667 -64.08333333 39.58333333 -48.25 28.75 C-47.46544434 28.21318604 -46.68088867 27.67637207 -45.87255859 27.12329102 C-44.29741124 26.04558421 -42.72221632 24.9679469 -41.14697266 23.89038086 C-37.06299084 21.09654489 -32.97997093 18.3013181 -28.8984375 15.50390625 C-28.05732422 14.92769531 -27.21621094 14.35148437 -26.34960938 13.7578125 C-24.75945362 12.66842403 -23.16958544 11.57861563 -21.58007812 10.48828125 C-20.12125582 9.48912317 -18.65939765 8.49438118 -17.19433594 7.50439453 C-15.66541544 6.45619603 -14.15409527 5.38205584 -12.65722656 4.28857422 C-5.13630467 -1.07790056 -5.13630467 -1.07790056 0 0 Z " fill="#F04134" transform="translate(259,17)"/>
<path d="M0 0 C7.78161437 5.27700569 13.80485909 12.61111943 15.875 21.875 C17.01427831 32.08103484 15.93785632 41.0992898 9.95703125 49.6015625 C4.29142857 56.40028572 -1.80333499 60.10111166 -10.125 62.875 C-22.25840294 63.91802376 -31.33769454 62.94909826 -41.2734375 55.19921875 C-47.61964314 49.37516927 -51.58843854 41.14078926 -52.4609375 32.578125 C-52.59909036 20.36541198 -50.04318234 12.95940732 -41.5625 4.07421875 C-38.05389224 0.90859989 -34.43924367 -1.23957671 -30.125 -3.125 C-29.155625 -3.558125 -28.18625 -3.99125 -27.1875 -4.4375 C-17.63694218 -6.58150278 -8.47779348 -4.78531703 0 0 Z " fill="#020200" transform="translate(274.125,90.125)"/>
<path d="M0 0 C0 70.62 0 141.24 0 214 C-10 214 -10 214 -12.9375 211.875 C-17.02201561 206.18143279 -18.44040353 201.77454249 -18.32279968 194.79959106 C-18.32051927 193.58521152 -18.32051927 193.58521152 -18.31819278 192.34629905 C-18.30944531 189.64220524 -18.27908636 186.93879489 -18.2487793 184.23486328 C-18.23806769 182.293123 -18.22869165 180.35137495 -18.22055054 178.40962219 C-18.1946881 173.14346168 -18.15014229 167.87760525 -18.10225272 162.61160517 C-18.05536115 157.10636013 -18.02563678 151.60102313 -17.99409485 146.09567261 C-17.93176875 135.67284533 -17.85399373 125.25019282 -17.77067453 114.82751453 C-17.67656249 102.96068632 -17.59966327 91.09376613 -17.52421319 79.22680688 C-17.36863451 54.81772059 -17.19142894 30.40882959 -17 6 C-14.35489984 4.99802294 -11.70897598 3.99833079 -9.0625 3 C-8.30775391 2.71382812 -7.55300781 2.42765625 -6.77539062 2.1328125 C-1.11328125 0 -1.11328125 0 0 0 Z " fill="#273492" transform="translate(495,187)"/>
<path d="M0 0 C5.31575775 0.94825443 10.06115927 2.82566601 15.0625 4.8125 C15.96033203 5.15603516 16.85816406 5.49957031 17.78320312 5.85351562 C26.79822282 9.42601042 26.79822282 9.42601042 29 13 C29.99246734 20.78979937 26.96539096 26.16192794 23.46728516 32.98950195 C22.87862671 34.16959335 22.28996826 35.34968475 21.68347168 36.5655365 C20.07321508 39.79259832 18.44338366 43.0094019 16.80971193 46.2246592 C15.09207935 49.61334756 13.39247435 53.01105643 11.69076538 56.40776062 C8.8242916 62.12324687 5.94634814 67.83282667 3.06005859 73.53833008 C-0.97696431 81.51857451 -4.99406647 89.50871243 -9.00671077 97.50123656 C-31.95462635 143.1986136 -31.95462635 143.1986136 -39.7850399 157.89655018 C-42.47760429 162.95648551 -45.03948483 168.07242499 -47.5546875 173.22265625 C-47.93508053 173.9994681 -48.31547356 174.77627995 -48.70739365 175.57663155 C-50.14025878 178.50314497 -51.57073336 181.43059766 -52.984375 184.36645508 C-54.05942264 186.59486038 -55.1493756 188.81542063 -56.2421875 191.03515625 C-56.56202606 191.70893814 -56.88186462 192.38272003 -57.21139526 193.07691956 C-58.54886795 195.76786068 -59.57439935 197.70984489 -62.08740234 199.4230957 C-64.39445345 200.11898053 -66.34388463 200.1957681 -68.75 200.125 C-69.54921875 200.10695313 -70.3484375 200.08890625 -71.171875 200.0703125 C-71.77515625 200.04710937 -72.3784375 200.02390625 -73 200 C-74.28339257 191.016252 -71.07583794 185.48275239 -66.75 177.9296875 C-64.6321383 174.20636004 -62.6834726 170.42343743 -60.77709961 166.58764648 C-60.05875169 165.14532235 -59.34021933 163.70309006 -58.62155151 162.26092529 C-58.21176434 161.43799232 -57.80197716 160.61505936 -57.37977219 159.76718903 C-54.92764192 154.84934242 -52.4656758 149.93641571 -50.00496876 145.02285683 C-48.35515147 141.72831347 -46.7058527 138.43351055 -45.05653381 135.13871765 C-44.71327 134.45300499 -44.37000618 133.76729233 -44.01634043 133.06080049 C-39.20250956 123.44430268 -34.39061146 113.8268376 -29.57876682 104.20934582 C-25.66499834 96.38698948 -21.75046225 88.56501893 -17.83422852 80.74389648 C-14.39629123 73.87797508 -10.95975147 67.01135635 -7.52490085 60.1438902 C-5.71234395 56.52007902 -3.89908591 52.89662257 -2.08413887 49.2740078 C-0.3841202 45.88073898 1.31403538 42.48654451 3.01074409 39.09161949 C3.63368785 37.8460076 4.25731977 36.60073959 4.88168335 35.35583878 C5.73228679 33.6595917 6.58019837 31.96199554 7.42796326 30.264328 C8.14105479 28.83952763 8.14105479 28.83952763 8.86855221 27.38594341 C11.4346876 21.97459886 11.7255615 16.90343221 11 11 C9.17464143 6.62543377 6.74811811 4.43757852 2.6875 2.0625 C1.800625 1.711875 0.91375 1.36125 0 1 C0 0.67 0 0.34 0 0 Z " fill="#273491" transform="translate(90,218)"/>
<path d="M0 0 C2.76884073 1.35374635 5.22137941 2.87079396 7.76953125 4.60546875 C8.82269531 5.31960937 9.87585938 6.03375 10.9609375 6.76953125 C12.18900707 7.61037778 13.41685628 8.4515462 14.64453125 9.29296875 C16.09102997 10.28011772 17.53765128 11.26708706 18.984375 12.25390625 C23.04526944 15.02673173 27.10151371 17.8062935 31.15673828 20.58740234 C35.15065847 23.32553055 39.14771663 26.05906813 43.14453125 28.79296875 C44.72397029 29.87368044 46.30339735 30.95440965 47.8828125 32.03515625 C51.08820638 34.22835519 54.29397435 36.42100593 57.5 38.61328125 C65.53794471 44.11019828 73.57096339 49.61406188 81.59326172 55.13378906 C86.70934311 58.65276 91.83198304 62.16207202 96.95703125 65.66796875 C97.73933105 66.20325195 98.52163086 66.73853516 99.32763672 67.29003906 C103.56274043 70.18724091 107.79984165 73.08148172 112.0390625 75.97265625 C113.35233521 76.86911865 113.35233521 76.86911865 114.69213867 77.78369141 C116.38309732 78.93790643 118.07464679 80.09125645 119.7668457 81.24365234 C120.52312256 81.76008301 121.27939941 82.27651367 122.05859375 82.80859375 C123.0633374 83.49356934 123.0633374 83.49356934 124.08837891 84.19238281 C125.64453125 85.29296875 125.64453125 85.29296875 126.64453125 86.29296875 C126.76516205 88.43857284 126.81481009 90.58818682 126.83740234 92.73706055 C126.84557983 93.41031876 126.85375732 94.08357697 126.86218262 94.77723694 C126.88708557 97.01554466 126.90356861 99.25378856 126.91796875 101.4921875 C126.92329243 102.25606089 126.9286161 103.01993427 126.9341011 103.80695534 C126.96085926 107.85330834 126.98022193 111.89963026 126.99462891 115.94604492 C127.01124612 120.12152534 127.05599042 124.29621171 127.10700035 128.47139263 C127.14070852 131.68423844 127.15221041 134.89689709 127.15785599 138.10990334 C127.16456317 139.64847667 127.17977165 141.18703792 127.2037468 142.72543907 C127.23546921 144.88491047 127.23542573 147.04225981 127.22802734 149.2019043 C127.2361142 150.4291069 127.24420105 151.65630951 127.25253296 152.92070007 C126.44408654 157.40473112 124.7546356 159.01561374 121.64453125 162.29296875 C118.44707482 167.24705247 118.52653323 173.32166997 119.13867188 179.04150391 C120.65881983 185.80733618 125.00586248 191.89525909 128.7265625 197.65161133 C129.64453125 199.29296875 129.64453125 199.29296875 129.64453125 201.29296875 C122.71453125 203.76796875 122.71453125 203.76796875 115.64453125 206.29296875 C115.13664062 205.26558594 114.62875 204.23820313 114.10546875 203.1796875 C113.77482422 202.51412842 113.44417969 201.84856934 113.10351562 201.1628418 C112.37593366 199.69800955 111.65070269 198.23200739 110.92773438 196.76489258 C108.8331425 192.54744111 106.59115209 188.50744277 104.14453125 184.48046875 C101.18425458 179.10991216 100.51056128 174.32799535 101.64453125 168.29296875 C103.88506539 163.7318814 105.05502804 162.58772036 109.64453125 160.29296875 C109.64453125 134.22296875 109.64453125 108.15296875 109.64453125 81.29296875 C107.99453125 80.63296875 106.34453125 79.97296875 104.64453125 79.29296875 C102.91873799 78.13156342 101.2288932 76.91567797 99.5703125 75.66015625 C93.78904078 71.36704642 87.84491603 67.37734167 81.83203125 63.41796875 C74.54403619 58.59210396 67.31481315 53.71896334 60.23583984 48.59155273 C55.9012829 45.4557323 51.4752661 42.48322864 47.01171875 39.53515625 C40.34273847 35.11497079 33.76980202 30.55004067 27.171875 26.02490234 C24.63308286 24.28512341 22.09228459 22.54831555 19.55078125 20.8125 C4.55294412 10.56765283 4.55294412 10.56765283 -2.54296875 5.5625 C-4.13143114 4.44989165 -5.74182522 3.3687311 -7.35546875 2.29296875 C-3.04029135 -0.9125916 -3.04029135 -0.9125916 0 0 Z " fill="#F27A00" transform="translate(257.35546875,57.70703125)"/>
<path d="M0 0 C17.16 0 34.32 0 52 0 C52 11.55 52 23.1 52 35 C41 32 41 32 38 31 C24.72648958 30.16955473 13.06025683 30.85033707 2 39 C1.34 39 0.68 39 0 39 C0 26.13 0 13.26 0 0 Z " fill="#F34234" transform="translate(230,187)"/>
<path d="M0 0 C4.03645582 2.86221413 7.87432219 5.74080072 11.3125 9.3125 C14.06742914 12.16050107 16.96776039 14.65011321 20.0625 17.125 C25.89785419 21.81900392 31.33116508 26.88463902 36.79296875 32.00390625 C41.4639332 36.38116714 46.29747541 40.5514289 51.171875 44.69921875 C58.01518479 50.53018213 64.73983217 56.45408334 71.34375 62.5546875 C75.86298847 66.71504527 80.50178609 70.72685535 85.1796875 74.70703125 C114.5675173 99.73672145 114.5675173 99.73672145 115.30078125 105.26953125 C115.32531776 110.59395422 115.12415375 114.47536353 112 119 C107.96678906 122.73072012 104.89884425 124.14251364 99.4375 124.1875 C98.65246094 124.20167969 97.86742187 124.21585937 97.05859375 124.23046875 C95 124 95 124 93 122 C93.66 122 94.32 122 95 122 C97.82085014 114.52643288 98.08448587 106.89139048 95.9375 99.1875 C89.91554228 89.28040827 80.68669951 81.93878622 71.75 74.75 C65.98558772 70.08941135 60.61148047 65.06220719 55.20703125 59.99609375 C50.5360668 55.61883286 45.70252459 51.4485711 40.828125 47.30078125 C33.98481521 41.46981787 27.26016783 35.54591666 20.65625 29.4453125 C16.0211338 25.17827906 11.25464853 21.07266958 6.46875 16.9765625 C5.83694824 16.43572021 5.20514648 15.89487793 4.55419922 15.33764648 C3.28588091 14.25278652 2.01669958 13.16893456 0.74658203 12.08618164 C-1.56573273 10.11098642 -3.8486693 8.1513307 -6 6 C-4.02 4.02 -2.04 2.04 0 0 Z " fill="#DCC199" transform="translate(266,302)"/>
<path d="M0 0 C0.30067383 0.58152832 0.60134766 1.16305664 0.91113281 1.76220703 C6.44803494 12.45725873 12.022705 23.12680377 17.8125 33.6875 C22.18668245 41.66777277 26.5315052 49.66313044 30.83578491 57.68130493 C31.7762135 59.43243261 32.71875312 61.18242608 33.66137695 62.93237305 C37.92569276 70.88527855 41.99343723 78.91505387 46 87 C34.12 91.95 34.12 91.95 22 97 C21.67 96.34 21.34 95.68 21 95 C24.3 93.68 27.6 92.36 31 91 C29.39231738 85.27964091 26.62663104 80.40446448 23.75 75.25 C22.65812016 73.27123818 21.56700556 71.29205395 20.4765625 69.3125 C19.90583008 68.27867187 19.33509766 67.24484375 18.74707031 66.1796875 C15.839488 60.88785519 12.98270903 55.5688823 10.125 50.25 C9.5487085 49.17886963 8.97241699 48.10773926 8.37866211 47.00415039 C5.61133822 41.86024217 2.84667152 36.71491151 0.08398438 31.56851196 C-0.88323019 29.76714121 -1.85095042 27.96604309 -2.81884766 26.16503906 C-4.03702437 23.89802716 -5.25419591 21.63047475 -6.47021484 19.36230469 C-7.02016113 18.33911133 -7.57010742 17.31591797 -8.13671875 16.26171875 C-8.61842529 15.36412842 -9.10013184 14.46653809 -9.59643555 13.54174805 C-10.57681298 11.76635938 -11.60909488 10.01908888 -12.67895508 8.29614258 C-14 6 -14 6 -14 4 C-12.23141309 3.32739649 -10.46003984 2.66211605 -8.6875 2 C-7.70136719 1.62875 -6.71523438 1.2575 -5.69921875 0.875 C-3 0 -3 0 0 0 Z " fill="#DCC19A" transform="translate(396,274)"/>
<path d="M0 0 C3.80342562 0.39329827 5.48983459 1.43112817 8.5859375 3.64453125 C9.6378125 4.381875 10.6896875 5.11921875 11.7734375 5.87890625 C12.33289063 6.27916016 12.89234375 6.67941406 13.46875 7.09179688 C15.84073085 8.78037069 18.24337658 10.4224539 20.64624023 12.06665039 C22.66168007 13.44638321 24.67283482 14.83220568 26.68359375 16.21875 C31.78538815 19.7317031 36.90417765 23.21959943 42.0234375 26.70703125 C51.31812193 33.03984053 60.6038965 39.38551066 69.88427734 45.73925781 C73.82595955 48.43763502 77.7684964 51.13476299 81.7109375 53.83203125 C83.29427482 54.91535875 84.87760816 55.99869208 86.4609375 57.08203125 C87.2446875 57.61828125 88.0284375 58.15453125 88.8359375 58.70703125 C91.2109375 60.33203125 93.5859375 61.95703125 95.9609375 63.58203125 C96.7449292 64.11844238 97.5289209 64.65485352 98.33666992 65.20751953 C99.91757782 66.28920191 101.49846979 67.37090759 103.0793457 68.45263672 C107.0746568 71.18642226 111.07025717 73.91978327 115.06640625 76.65234375 C123.02318991 82.0937985 130.97758355 87.53850007 138.91357422 93.01025391 C142.9273822 95.7740732 146.95542879 98.515887 150.9921875 101.24609375 C151.99016357 101.92236816 152.98813965 102.59864258 154.01635742 103.29541016 C155.98861596 104.63117217 157.96267877 105.96427489 159.9387207 107.29443359 C160.83937256 107.90496582 161.74002441 108.51549805 162.66796875 109.14453125 C163.8741687 109.95857422 163.8741687 109.95857422 165.10473633 110.7890625 C169.99939723 114.37481153 169.99939723 114.37481153 170.6796875 117.453125 C170.76349973 123.66570621 170.76349973 123.66570621 168.0859375 126.89453125 C164.67994826 128.59752587 162.97048894 128.94583557 159.2109375 128.33203125 C155.8359375 126.83203125 155.8359375 126.83203125 153.2109375 124.33203125 C153.0859375 120.58203125 153.0859375 120.58203125 153.23681641 118.46777344 C153.18264682 113.99724926 150.82093786 109.91391156 147.67333984 106.82128906 C145.8216011 105.39284974 143.92373045 104.10358274 141.9609375 102.83203125 C141.23221436 102.33848145 140.50349121 101.84493164 139.75268555 101.33642578 C137.25097044 99.64927678 134.73173828 97.99051326 132.2109375 96.33203125 C130.22183717 95.00773985 128.23359076 93.6821652 126.24609375 92.35546875 C123.12249709 90.27175674 119.99772273 88.18998358 116.86816406 86.11523438 C110.48265415 81.8771538 104.22650014 77.51979238 98.0234375 73.01953125 C91.81551233 68.58529898 85.40072689 64.44545103 79.04199219 60.23242188 C72.8787489 56.13914204 66.79316559 51.96982129 60.80151367 47.63012695 C56.46724806 44.49440425 52.04142609 41.52212849 47.578125 38.57421875 C40.90742555 34.15289382 34.33332057 29.58614631 27.73388672 25.05957031 C25.20954798 23.3310798 22.68154604 21.60808336 20.15234375 19.88671875 C11.74319475 14.1592729 3.37594771 8.40533098 -4.7890625 2.33203125 C-2.7890625 0.33203125 -2.7890625 0.33203125 0 0 Z " fill="#C41D1D" transform="translate(255.7890625,16.66796875)"/>
<path d="M0 0 C3.0482673 2.46455654 4.83325083 4.74987624 7 8 C7.6134464 13.88242437 6.16736503 17.78845577 3.67578125 22.9453125 C3.3325029 23.67821503 2.98922455 24.41111755 2.63554382 25.16622925 C1.9098019 26.70717477 1.17739908 28.24499895 0.4387207 29.77978516 C-0.68368849 32.11706301 -1.77964883 34.46544071 -2.87304688 36.81640625 C-3.58439044 38.31844198 -4.29723199 39.81976938 -5.01171875 41.3203125 C-5.33589279 42.01625519 -5.66006683 42.71219788 -5.99406433 43.42922974 C-8.07914943 47.71556433 -10.31587612 50.85335169 -14 54 C-17.73080984 55.24360328 -21.1314459 55.66547906 -25 55 C-28.50332207 53.01452863 -30.77153883 50.34269176 -33 47 C-34.01100409 40.60619844 -32.4519543 35.5104203 -29.67578125 29.82421875 C-29.3325029 29.09177444 -28.98922455 28.35933014 -28.63554382 27.60469055 C-27.91162828 26.07062274 -27.17922567 24.54053344 -26.4387207 23.0144043 C-25.31169958 20.68584624 -24.21778516 18.34374031 -23.12695312 15.99804688 C-22.41597382 14.50169452 -21.70314563 13.00621895 -20.98828125 11.51171875 C-20.66410721 10.81688889 -20.33993317 10.12205902 -20.00593567 9.40617371 C-17.94825189 5.21719831 -15.91479187 2.55772674 -12 0 C-7.8224461 -1.39251797 -4.24798402 -1.10492379 0 0 Z " fill="#FBDCAF" transform="translate(151,395)"/>
<path d="M0 0 C3.71436588 1.44797314 6.3756849 3.25484972 8.9375 6.3125 C10.98749727 11.49778721 10.29779427 15.76287702 8.171875 20.77734375 C7.37797385 22.50361718 6.57029981 24.22361341 5.75 25.9375 C5.35425781 26.79279297 4.95851562 27.64808594 4.55078125 28.52929688 C3.38734231 31.02973696 2.19976123 33.51680832 1 36 C0.44711304 37.15085083 0.44711304 37.15085083 -0.11694336 38.32495117 C-2.00286832 42.18573088 -3.61885932 45.27327364 -7 48 C-10.75535411 49.2517847 -14.11710414 49.77373976 -18 49 C-21.3249149 46.93384829 -24.23445396 44.53109208 -26 41 C-26.93221042 32.4518063 -24.01627617 26.37688106 -20.375 18.75 C-19.59189453 17.01363281 -19.59189453 17.01363281 -18.79296875 15.2421875 C-14.7803174 6.66204906 -10.59003615 -0.99906001 0 0 Z " fill="#FBDCAF" transform="translate(183,419)"/>
<path d="M0 0 C-0.56714722 1.20946289 -0.56714722 1.20946289 -1.14575195 2.44335938 C-2.56273682 5.46892509 -3.97696114 8.49575044 -5.3894043 11.5234375 C-5.99834854 12.82732869 -6.60835184 14.13072586 -7.21948242 15.43359375 C-16.09719733 33.39196261 -16.09719733 33.39196261 -14.25 52.8125 C-12.59305479 56.9430277 -10.68167015 60.45636444 -8 64 C-14.84680125 64.5050919 -20.40832359 64.30775071 -26 60 C-31.53120633 54.11233815 -34.54514064 48.3294945 -34.49511719 40.20068359 C-33.38317614 33.01254399 -29.59548321 26.48435476 -26.4375 20 C-25.35066083 17.73693316 -24.26943362 15.47149163 -23.1967926 13.20166016 C-22.5315882 11.79721841 -21.85747747 10.39695375 -21.1736908 9.00146484 C-20.38956899 7.36147978 -19.68651193 5.68318133 -19 4 C-19.33 3.34 -19.66 2.68 -20 2 C-17.41842632 1.46867611 -14.83538244 0.94965621 -12.25 0.4375 C-11.52039063 0.28603516 -10.79078125 0.13457031 -10.0390625 -0.02148438 C-6.33442927 -0.74557178 -3.60677678 -1.09817231 0 0 Z " fill="#DDC29A" transform="translate(196,277)"/>
<path d="M0 0 C5.03359633 2.3843351 8.49996787 5.99993573 11 11 C11.82229571 17.49748412 10.77260907 22.62098965 7 28 C1.88634368 32.86420967 -2.44662891 33.35840084 -9.2734375 33.27734375 C-13.14953489 32.88307023 -15.16140409 31.63089377 -18 29 C-22.44118559 23.11842989 -23.88469766 18.26448924 -23 11 C-21.375 7.75 -21.375 7.75 -19 5 C-18.195625 4.05125 -17.39125 3.1025 -16.5625 2.125 C-11.89245581 -1.56564874 -5.57882057 -0.767532 0 0 Z " fill="#00818D" transform="translate(262,103)"/>
<path d="M0 0 C2.85746217 1.26998319 4.48137263 2.2838003 6.3125 4.8125 C8.6517812 12.25566746 5.0088227 18.07643643 1.8125 24.625 C1.32974609 25.66140625 0.84699219 26.6978125 0.34960938 27.765625 C-4.27733518 37.37973261 -4.27733518 37.37973261 -9 40 C-11.77846621 40.76302576 -14.20083821 40.6729298 -17 40 C-19.69105198 37.82425584 -21.45532928 36.08934144 -23 33 C-23.49610556 26.16250159 -20.74541122 21.38389127 -17.8125 15.375 C-17.32974609 14.33859375 -16.84699219 13.3021875 -16.34960938 12.234375 C-12.56172312 4.36370666 -9.65592183 -1.20699023 0 0 Z " fill="#F9DBAE" transform="translate(106,393)"/>
<path d="M0 0 C3.50035742 0.7971111 4.97632236 2.57948879 6.97265625 5.44921875 C7.60805571 12.29721572 4.66484121 17.44309364 1.84765625 23.51171875 C1.37328125 24.58744141 0.89890625 25.66316406 0.41015625 26.77148438 C-2.28504963 32.64630476 -4.44690151 37.01099546 -10.02734375 40.44921875 C-14.36897643 40.59893022 -16.22289394 40.17116088 -19.46484375 37.26171875 C-21.32403608 33.91517255 -21.31228007 32.23654575 -21.02734375 28.44921875 C-20.08105469 25.62841797 -20.08105469 25.62841797 -18.76171875 22.75390625 C-18.28347656 21.70847656 -17.80523437 20.66304688 -17.3125 19.5859375 C-16.80589844 18.50957031 -16.29929688 17.43320312 -15.77734375 16.32421875 C-15.28621094 15.24011719 -14.79507813 14.15601563 -14.2890625 13.0390625 C-8.04290985 -0.43597081 -8.04290985 -0.43597081 0 0 Z " fill="#F9DBAE" transform="translate(215.02734375,443.55078125)"/>
<path d="M0 0 C17.16 0 34.32 0 52 0 C52 11.55 52 23.1 52 35 C46.30144718 33.44584923 40.60357029 31.86785676 35 30 C35 20.43 35 10.86 35 1 C23.78 1 12.56 1 1 1 C1.33 13.54 1.66 26.08 2 39 C1.34 39 0.68 39 0 39 C0 26.13 0 13.26 0 0 Z " fill="#B31C1B" transform="translate(230,187)"/>
<path d="M0 0 C12.67014453 0.61307151 20.93174215 7.21697923 30.65234375 14.68359375 C35.05904222 18.06636228 39.54973325 21.32320953 44.0625 24.5625 C45.56132158 25.64175537 47.0600203 26.72118138 48.55859375 27.80078125 C49.29190918 28.32881348 50.02522461 28.8568457 50.78076172 29.40087891 C54.40111361 32.00960331 58.016809 34.62448005 61.625 37.25 C62.27090088 37.71607666 62.91680176 38.18215332 63.58227539 38.66235352 C65.07326724 39.75009657 66.53969865 40.87138952 68 42 C68 42.33 68 42.66 68 43 C54.63421001 44.82260773 42.13704147 32.1703682 32.26416016 24.69824219 C29.15402018 22.36546952 25.98963607 20.11515801 22.8125 17.875 C17.53319466 14.12948334 12.31501297 10.30578279 7.125 6.4375 C6.41577393 5.9120459 5.70654785 5.3865918 4.97583008 4.84521484 C3.29813705 3.58855804 1.64616103 2.29768798 0 1 C0 0.67 0 0.34 0 0 Z " fill="#DABF98" transform="translate(260,234)"/>
<path d="M0 0 C3.16376767 1.28917305 3.8631175 3.35857708 5.21875 6.37109375 C7.58318662 13.89868788 6.09307925 20.75732989 3.25 27.91015625 C1.984375 29.80859375 1.984375 29.80859375 0.03515625 30.70703125 C-2.015625 30.80859375 -2.015625 30.80859375 -5.078125 28.80859375 C-9.45666159 24.77368914 -11.14679325 20.1256871 -11.453125 14.24609375 C-11.23700811 8.46987881 -8.56428267 5.31853498 -4.515625 1.37109375 C-2.015625 -0.19140625 -2.015625 -0.19140625 0 0 Z " fill="#00B8D0" transform="translate(250.015625,104.19140625)"/>
<path d="M0 0 C-2.64 4.62 -5.28 9.24 -8 14 C-13.06057937 12.41384826 -17.57595309 10.996935 -22 8 C-15.7666677 0.72777898 -9.21971196 -0.51220622 0 0 Z " fill="#DABF98" transform="translate(83,384)"/>
</svg>
